<?xml version="1.0" encoding="utf-8"?>
<!-- Generator: Adobe Illustrator 21.0.0, SVG Export Plug-In . SVG Version: 6.00 Build 0)  -->
<svg version="1.1" id="Слой_1" xmlns="http://www.w3.org/2000/svg" xmlns:xlink="http://www.w3.org/1999/xlink" x="0px" y="0px"
	 viewBox="0 0 59 59" style="enable-background:new 0 0 59 59;" xml:space="preserve">
<style type="text/css">
	.st0{fill:none;stroke:#FFFFFF;stroke-width:3;stroke-linejoin:round;stroke-miterlimit:10;}
	.st1{fill:none;stroke:#FFFFFF;stroke-width:3;stroke-miterlimit:10;}
	.st2{fill:none;stroke:#FFFFFF;stroke-width:3;stroke-linecap:round;stroke-miterlimit:10;}
</style>
<path class="st0" d="M48.4,5.3c-2.4,0-19.5,0-19.5,0s-1.1,0.2-2.3,2.3c-1.2,2.1-2.8,6-2.8,6l-2.1,1.2L20,11.6l-4.6,2.3l1.4,3.4
	c0,0-2.8,1.4-2.8,2.7v32.5c0,0,0.6,3.6,3.6,3.6c3,0,30.8,0,30.8,0s3-0.3,3-3c0-2.7,0-44.7,0-44.7S50.8,5.3,48.4,5.3z"/>
<path class="st1" d="M11,11.8l9.1-4.5c0,0-0.5-1-1.4-2.9c-0.9-1.9-2.8-0.6-2.8-0.6l-5.2,2.8c0,0-2,1.1-1,2.8
	C10.6,11,11,11.8,11,11.8z"/>
<polygon class="st0" points="30.5,9.3 28.4,13.6 42.5,13.7 45.3,9.1 "/>
<polyline class="st2" points="20.7,22.5 27.2,29.5 38.9,29.5 38.9,41.1 27.4,41.1 27.2,29.5 "/>
<line class="st2" x1="45.3" y1="22.7" x2="38.5" y2="29.6"/>
<line class="st2" x1="45.3" y1="48.4" x2="38.7" y2="41.7"/>
<path class="st2" d="M20.7,48.1c2.4-2.4,4.8-4.8,7.2-7.2"/>
</svg>
