<?xml version="1.0" encoding="utf-8"?>
<!-- Generator: Adobe Illustrator 21.0.0, SVG Export Plug-In . SVG Version: 6.00 Build 0)  -->
<svg version="1.1" id="Слой_1" xmlns="http://www.w3.org/2000/svg" xmlns:xlink="http://www.w3.org/1999/xlink" x="0px" y="0px"
	 viewBox="0 0 59 59" style="enable-background:new 0 0 59 59;" xml:space="preserve">
<style type="text/css">
	.st0{fill:none;stroke:#ffffff;stroke-width:3;stroke-miterlimit:10;}
	.st1{fill:none;}
	.st2{fill:none;stroke:#ffffff;stroke-width:3;stroke-linecap:round;stroke-miterlimit:10;}
</style>
<path class="st0" d="M1.3,19.3v2.1c0,0,0.1,1.1,1.6,1.1s53,0,53,0S57,22,57,21.3s0-2,0-2s-0.4-1-1-1s-7.9,0-7.9,0v-2.8
	c0,0-0.2-1.1-1.1-1.1s-6.3,0-6.3,0s-1,0.3-1,0.9s0,3,0,3H19v-2.7c0,0-0.1-1.2-1.2-1.2c-1.1,0-6.2,0-6.2,0s-1.1,0.2-1.1,1.1
	c0,0.9,0,2.8,0,2.8H2.2C2.2,18.3,1.3,18.5,1.3,19.3z"/>
<path class="st0" d="M4.2,26.6v24.1c0,0,0.1,1.1,1.1,1.1s47.3,0,47.3,0s1.2,0.1,1.2-1.2c0-1.3,0-24,0-24H4.2z"/>
<line class="st1" x1="10.3" y1="35.3" x2="18.9" y2="35.3"/>
<line class="st2" x1="14.7" y1="39.6" x2="14.7" y2="31.1"/>
<line class="st2" x1="10.4" y1="35.4" x2="18.9" y2="35.4"/>
<line class="st2" x1="39.5" y1="35.4" x2="47.9" y2="35.4"/>
</svg>
