<?xml version="1.0" encoding="utf-8"?>
<!-- Generator: Adobe Illustrator 21.0.0, SVG Export Plug-In . SVG Version: 6.00 Build 0)  -->
<svg version="1.1" id="Слой_1" xmlns="http://www.w3.org/2000/svg" xmlns:xlink="http://www.w3.org/1999/xlink" x="0px" y="0px"
	 viewBox="0 0 59 59" style="enable-background:new 0 0 59 59;" xml:space="preserve">
<style type="text/css">
	.st0{fill:none;stroke:#ffffff;stroke-width:3;stroke-linecap:round;stroke-linejoin:round;stroke-miterlimit:10;}
</style>
<polygon class="st0" points="3.1,7.4 6.4,4.1 13.4,11.1 10,14.5 "/>
<path class="st0" d="M11.7,12.8l14.7,14.7l9.5-9.5c0,0-2.1-6.9,2-10.9s10.9-2.4,10.9-2.4L44.5,9l-0.1,5.5h5.3l4.5-4.5
	c0,0,2.6,6.7-2.3,11.6s-10.9,1.5-10.9,1.5L22.3,42.3c0,0,2.1,6.6-2.4,11.1S9.1,55.3,9.1,55.3l4.4-4.4v-5.2l-5.1-0.3l-4.7,4.8
	c0,0-2.3-6.7,2.2-11.2s10.9-2.1,10.9-2.1l8.8-8.8"/>
<line class="st0" x1="32.5" y1="33.6" x2="39.7" y2="40.7"/>
<line class="st0" x1="45.1" y1="35.7" x2="34.8" y2="46.2"/>
<path class="st0" d="M38.1,44.5l11,11.1c0,0,2.8,1.6,4.8-0.4c2.4-2.4,0.4-4.9,0.4-4.9L42.8,38.8"/>
</svg>
