<?xml version="1.0" encoding="utf-8"?>
<!-- Generator: Adobe Illustrator 21.0.0, SVG Export Plug-In . SVG Version: 6.00 Build 0)  -->
<svg version="1.1" id="Слой_1" xmlns="http://www.w3.org/2000/svg" xmlns:xlink="http://www.w3.org/1999/xlink" x="0px" y="0px"
	 viewBox="0 0 59 59" style="enable-background:new 0 0 59 59;" xml:space="preserve">
<style type="text/css">
	.st0{fill:none;stroke:#ffffff;stroke-width:3;stroke-linejoin:round;stroke-miterlimit:10;}
</style>
<path class="st0" d="M15.4,30.5h27.3c0,0,3.7,0.2,3.7,3.1s0,18.9,0,18.9s0.3,3.7-3.7,3.7s-27.3,0-27.3,0s-3.7,0.4-3.7-3.7
	s0-19.1,0-19.1S11.5,30.5,15.4,30.5z"/>
<path class="st0" d="M23.8,40.5c0,0,0.4-4.3,5.3-4.3c3.8,0,5.4,2.6,5.4,4.4c0,2.8-2.7,3.6-2.7,3.6l0.1,3.7c0,0,0.3,2.3-2.8,2.3
	c-2.9,0-2.7-2.6-2.7-2.6v-3.2C26.3,44.4,23.8,43.6,23.8,40.5z"/>
<path class="st0" d="M16.8,29.2v-14c0,0,0.3-11.6,11.8-11.6c10.5,0,12.7,9,12.7,11.8s0,7.9,0,7.9s0.4,2.7-2.6,2.7
	c-2.6,0-2.3-2.9-2.3-2.9v-8.1c0,0,0-7.1-7.7-7.1S21,15.5,21,15.5l0.1,13.6"/>
</svg>
