<?xml version="1.0" encoding="utf-8"?>
<!-- Generator: Adobe Illustrator 21.0.0, SVG Export Plug-In . SVG Version: 6.00 Build 0)  -->
<svg version="1.1" id="Слой_1" xmlns="http://www.w3.org/2000/svg" xmlns:xlink="http://www.w3.org/1999/xlink" x="0px" y="0px"
	 viewBox="0 0 59 59" style="enable-background:new 0 0 59 59;" xml:space="preserve">
	 <style type="text/css">
	 	#path-1_15_, #path-2_15_ {
			 fill: #ffffff;
		 }
	 </style>
<g>
	<g id="group-24svg">
		<path id="path-1_15_" d="M56.6,55.1H2.3c-0.5,0-0.9-0.3-1.2-0.7c-0.2-0.4-0.3-0.9,0-1.3L25.5,9.3c0,0,0-0.1,0.1-0.1
			C26.4,7.8,28,7,29.6,7c1.6,0,3,0.7,3.9,2c0,0,0,0.1,0.1,0.1l24.3,44c0.2,0.4,0.2,0.9,0,1.3C57.6,54.9,57.1,55.1,56.6,55.1z
			 M4.6,52.4h49.7L31.2,10.5c-0.5-0.7-1.2-0.8-1.6-0.8c-0.7,0-1.4,0.4-1.8,1L4.6,52.4z"/>
		<path id="path-2_15_" d="M33.5,31.1l-5.3,0.8c0,0,3.8-6.8,4.3-7.7c0.5-0.9-3.5-2.4-4.2-0.8c-0.5,1.1-5.7,13.7-5.7,13.7l5.4-1.2
			l-1.9,5.5l-1.1-1.6l-0.1,9.4l5.7-7.5l-2,0.8L33.5,31.1z"/>
	</g>
</g>
</svg>
