<?xml version="1.0" encoding="utf-8"?>
<!-- Generator: Adobe Illustrator 21.0.0, SVG Export Plug-In . SVG Version: 6.00 Build 0)  -->
<svg version="1.1" id="Слой_1" xmlns="http://www.w3.org/2000/svg" xmlns:xlink="http://www.w3.org/1999/xlink" x="0px" y="0px"
	 viewBox="0 0 18.5 18.5" style="enable-background:new 0 0 18.5 18.5;" xml:space="preserve">
<style type="text/css">
	.st0{fill:#FFFFFF;}
</style>
<path class="st0" d="M9.3,0.3c-5,0-9,4-9,9c0,5,4,9,9,9c5,0,9-4,9-9C18.3,4.3,14.2,0.3,9.3,0.3z M14,13.4l-0.7,0.7
	c-0.1,0.1-0.5,0.2-0.5,0.2c-2.3,0-4.5-0.9-6.1-2.5C5.1,10.2,4.2,8,4.2,5.7c0,0,0.1-0.4,0.2-0.5l0.7-0.7c0.3-0.3,0.8-0.4,1.1-0.3
	l0.2,0.1c0.4,0.1,0.7,0.5,0.8,0.9l0.4,1.3c0.1,0.4,0,0.9-0.3,1.1L6.8,8.1c0.5,1.7,1.8,3.1,3.6,3.6l0.5-0.5c0.3-0.3,0.8-0.4,1.1-0.3
	l1.3,0.4c0.4,0.1,0.8,0.5,0.9,0.8l0.1,0.2C14.4,12.6,14.3,13.1,14,13.4z"/>
</svg>
