<?xml version="1.0" encoding="utf-8"?>
<!-- Generator: Adobe Illustrator 21.0.0, SVG Export Plug-In . SVG Version: 6.00 Build 0)  -->
<svg version="1.1" xmlns="http://www.w3.org/2000/svg" xmlns:xlink="http://www.w3.org/1999/xlink" x="0px" y="0px"
	 viewBox="0 0 27 15" style="enable-background:new 0 0 27 15;" xml:space="preserve">
<g>
	<path d="M4.2,9.6c-1.3,0-2.3,1.2-2.3,2.6s1.1,2.6,2.3,2.6c1.3,0,2.3-1.2,2.3-2.6S5.5,9.6,4.2,9.6z M4.2,13.7
		c-0.8,0-1.5-0.7-1.5-1.6c0-0.9,0.7-1.6,1.5-1.6c0.8,0,1.5,0.7,1.5,1.6C5.7,13,5,13.7,4.2,13.7z" />
	<path d="M22.2,9.9c-1.3,0-2.3,1.2-2.3,2.6s1.1,2.6,2.3,2.6c1.3,0,2.3-1.1,2.3-2.6S23.5,9.9,22.2,9.9z M22.2,14
		c-0.8,0-1.5-0.7-1.5-1.6c0-0.9,0.7-1.6,1.5-1.6c0.8,0,1.5,0.7,1.5,1.6C23.6,13.3,23,14,22.2,14z" />
	<g>
		<path d="M27,12l-1.8-2.5c-0.3-0.4-0.8-0.7-1.3-0.7h-0.1V8c0,0-0.1-0.3-0.4-0.3S23,8.1,23,8.1v0.6h-5.7V8.5c0-0.5,0.2-0.9,0.5-1.3
			l5.5-6.1c0,0,0.3-0.4-0.1-0.9s-0.9,0-0.9,0l-5.6,6.1c-0.3,0.3-0.7,0.5-1.2,0.5h-0.3v2.5h-0.8c0,0,0-6.6,0-7c0-0.4-0.3-0.5-0.3-0.5
			h-0.5c0,0,0-0.2,0-0.4c0-0.3-0.4-0.3-0.4-0.3c-0.3,0-0.4,0.3-0.4,0.3v0.4c0,0-2.4,0-2.6,0C10,1.9,9.8,2,9.8,2L6.1,5.9
			C5.8,6.2,5.4,6.4,5,6.4H3.1c-0.5,0-1,0.4-1.5,0.9C1,7.8,0.9,9.1,0.9,9.1s-0.2,0-0.5,0C0,9.1,0,9.5,0,9.5v2.6
			c0,0.3,0.3,0.4,0.3,0.4h1.3c0-0.1,0-0.1,0-0.2c0-1.6,1.2-2.9,2.6-2.9c1.5,0,2.6,1.3,2.6,2.9c0,0.1,0,0.1,0,0.2h11.4
			c0.7,0,1.3-0.4,1.6-1.1c0.4-1,1.3-1.7,2.3-1.7c1,0,1.9,0.7,2.3,1.7c0.3,0.7,0.9,1.1,1.6,1.1h0.6C27.1,12.4,27,12,27,12z M11.9,6.5
			H11c-1.5,0-4.9,0.6-1.2-3l0,0c0.3-0.3,0.7-0.5,1.2-0.5h2.2c0,0,0.3,0,0.3,0.3v1.5C13.5,5.7,12.8,6.5,11.9,6.5z" />
		<path d="M23,1.7v1.9l-0.2,0.1v0.4L23,4.2v0.2c0,0-0.6,0-0.6,0.5c0,0.5,0,0.7,0,0.7s0,0.3,0.6,0.3c0.5,0,0.5-0.3,0.5-0.5
			c0-0.2-0.1-0.2-0.2-0.2c-0.1,0-0.1,0.1-0.1,0.2c0,0.1-0.1,0.3-0.2,0.3c-0.2,0-0.3,0-0.3-0.3c0-0.1,0-0.4,0-0.5
			c0-0.1,0.2-0.3,0.3-0.3c0.1,0,0.3,0,0.3,0V4.2L23.4,4V3.6h-0.2V1.5L23,1.7z" />
	</g>
</g>
</svg>
