<?xml version="1.0" encoding="utf-8"?>
<!-- Generator: Adobe Illustrator 21.0.0, SVG Export Plug-In . SVG Version: 6.00 Build 0)  -->
<svg version="1.1" id="Слой_1" xmlns="http://www.w3.org/2000/svg" xmlns:xlink="http://www.w3.org/1999/xlink" x="0px" y="0px"
	 viewBox="0 0 26 26" style="enable-background:new 0 0 26 26;" xml:space="preserve">
<style type="text/css">
	.st0{fill:#845EA4;}
</style>
<path class="st0" d="M3.9,0C3.4,0,2.8,0.2,2.3,0.5c-1.2,0.6-2,1.8-2.3,3.1C0,3.9,0,4.3,0,13v9.1l0.1,0.3c0.4,1.8,1.7,3.1,3.5,3.5
	L3.8,26h18.3l0.3-0.1c1.8-0.4,3.1-1.7,3.5-3.5l0.1-0.3V13c0-8.7,0-9.1-0.1-9.4c-0.1-0.4-0.2-0.8-0.4-1.2c-0.7-1.3-2-2.2-3.5-2.4
	C21.7-0.1,4.2,0,3.9,0L3.9,0z M13.8,4.6c1,0.1,1.7,0.4,2.6,0.8c0.8,0.4,1.4,0.8,2.1,1.5c0.7,0.7,1,1.2,1.4,2
	c0.5,1.1,0.9,2.4,0.9,3.8c0,0.5,0,0.6-0.1,0.7c-0.2,0.3-0.7,0.2-0.8-0.1c-0.1-0.1-0.1-0.2-0.1-0.6c0-0.6-0.1-1-0.2-1.4
	C19.3,9.5,18.5,8,17.1,7c-1.2-0.9-2.3-1.3-3.9-1.4c-0.5,0-0.6-0.1-0.7-0.1c-0.2-0.2-0.2-0.6,0-0.8c0.1-0.1,0.2-0.1,0.7-0.1
	C13.3,4.6,13.7,4.6,13.8,4.6L13.8,4.6z M7.5,4.9C7.6,5,7.7,5,7.8,5.1c0.5,0.4,2,2.2,2.5,3.2c0.3,0.5,0.4,0.9,0.3,1.2
	c-0.1,0.3-0.2,0.5-0.9,1c-0.3,0.2-0.5,0.4-0.6,0.5c-0.1,0.1-0.2,0.4-0.2,0.6c0,0.5,0.3,1.3,0.7,2c0.3,0.5,0.9,1.1,1.4,1.6
	c0.6,0.6,1.2,1,1.8,1.3c0.8,0.4,1.3,0.5,1.7,0.3c0.1,0,0.2-0.1,0.2-0.1c0,0,0.2-0.3,0.5-0.6c0.5-0.6,0.6-0.7,0.9-0.8
	c0.4-0.1,0.8-0.1,1.2,0.1c0.3,0.2,1,0.6,1.4,0.9c0.6,0.4,1.8,1.4,1.9,1.6c0.3,0.4,0.3,0.8,0.1,1.3c-0.2,0.5-1,1.5-1.6,2
	c-0.5,0.4-0.9,0.5-1.3,0.6c-0.4,0-0.6,0-1-0.2c-3.9-1.6-7-4-9.5-7.3c-1.3-1.7-2.3-3.5-3-5.4C4,7.8,4,7.3,4.3,6.8
	C4.4,6.5,5,6,5.5,5.6c0.7-0.5,1-0.7,1.3-0.8C7,4.8,7.3,4.8,7.5,4.9L7.5,4.9z M14,6.6c1.7,0.2,3,1,3.9,2.3c0.5,0.7,0.8,1.6,0.9,2.5
	c0,0.3,0,0.9,0,1c0,0.1-0.2,0.2-0.3,0.3c-0.1,0.1-0.3,0.1-0.5,0c-0.2-0.1-0.3-0.3-0.3-0.7c0-0.7-0.2-1.5-0.5-2.1
	c-0.4-0.7-0.9-1.2-1.6-1.6c-0.6-0.3-1.4-0.6-2.1-0.6c-0.3,0-0.4-0.1-0.5-0.2c-0.2-0.2-0.2-0.4,0-0.6C13.1,6.6,13.4,6.5,14,6.6
	L14,6.6z M14.6,8.7c0.5,0.1,1,0.3,1.3,0.7c0.5,0.4,0.7,1,0.8,1.7c0.1,0.5,0,0.7-0.1,0.9c-0.2,0.2-0.5,0.2-0.7,0
	c-0.1-0.1-0.2-0.2-0.2-0.5c0-0.4-0.1-0.6-0.2-0.9c-0.2-0.5-0.7-0.8-1.4-0.9c-0.3,0-0.4-0.1-0.6-0.2c-0.2-0.2-0.1-0.6,0.2-0.8
	c0.1-0.1,0.2-0.1,0.4,0C14.3,8.7,14.5,8.7,14.6,8.7L14.6,8.7z"/>
</svg>
